<!DOCTYPE svg PUBLIC "-//W3C//DTD SVG 1.1//EN" "http://www.w3.org/Graphics/SVG/1.1/DTD/svg11.dtd">
<!-- Uploaded to: SVG Repo, www.svgrepo.com, Transformed by: SVG Repo Mixer Tools -->
<svg fill="#ffffff" width="800px" height="800px" viewBox="0 0 24 24" role="img" xmlns="http://www.w3.org/2000/svg">
<g id="SVGRepo_bgCarrier" stroke-width="0"/>
<g id="SVGRepo_tracerCarrier" stroke-linecap="round" stroke-linejoin="round"/>
<g id="SVGRepo_iconCarrier">
<title>Abstract icon</title>
<path d="M12 0c9.601 0 12 2.399 12 12 0 9.601-2.399 12-12 12-9.601 0-12-2.399-12-12C0 2.399 2.399 0 12 0zm-1.969 18.564c2.524.003 4.604-2.07 4.609-4.595 0-2.521-2.074-4.595-4.595-4.595S5.45 11.449 5.45 13.969c0 2.516 2.065 4.588 4.581 4.595zm8.344-.189V5.625H5.625v2.247h10.498v10.503h2.252zm-8.344-6.748a2.343 2.343 0 11-.002 4.686 2.343 2.343 0 01.002-4.686z"/>
</g>
</svg>